<svg width="141" height="36" viewBox="0 0 141 36" fill="none" xmlns="http://www.w3.org/2000/svg">
<path d="M21.482 3.122V8.688L8.924 29.112H21.758L21.022 35H0.644V29.48L13.294 8.826H1.84V3.122H21.482ZM36.5326 9.792C38.434 9.792 39.9213 10.436 40.9946 11.724C42.0986 12.9813 42.6506 14.714 42.6506 16.922V35H35.5666V17.888C35.5666 16.876 35.4133 16.1707 35.1066 15.772C34.8 15.3427 34.3706 15.128 33.8186 15.128C33.2053 15.128 32.6073 15.3887 32.0246 15.91C31.4726 16.4007 30.89 17.1367 30.2766 18.118V35H23.1926V0.867998L30.2766 0.131999V13.242C31.1353 12.0767 32.0706 11.218 33.0826 10.666C34.0946 10.0833 35.2446 9.792 36.5326 9.792ZM64.5197 35H58.3557L58.0337 32.056C56.439 34.54 54.277 35.782 51.5477 35.782C49.5543 35.782 48.0057 35.1227 46.9017 33.804C45.8283 32.4853 45.2917 30.7067 45.2917 28.468V10.574H52.3757V27.916C52.3757 29.664 52.989 30.538 54.2157 30.538C55.4117 30.538 56.485 29.6487 57.4357 27.87V10.574H64.5197V35ZM74.5732 0.131999V35H67.4892V0.867998L74.5732 0.131999ZM88.3732 10.574L81.8412 21.292L88.8792 35H81.1512L74.8032 21.66L81.4272 10.574H88.3732ZM98.3595 9.792C101.794 9.792 104.478 10.9113 106.41 13.15C108.372 15.358 109.354 18.578 109.354 22.81C109.354 26.858 108.372 30.032 106.41 32.332C104.447 34.632 101.764 35.782 98.3595 35.782C94.9248 35.782 92.2415 34.6627 90.3095 32.424C88.3775 30.1853 87.4115 26.9653 87.4115 22.764C87.4115 18.6853 88.3775 15.5113 90.3095 13.242C92.2722 10.942 94.9555 9.792 98.3595 9.792ZM98.3595 15.036C97.1022 15.036 96.1822 15.634 95.5995 16.83C95.0168 18.026 94.7255 20.004 94.7255 22.764C94.7255 25.5853 95.0168 27.594 95.5995 28.79C96.1822 29.986 97.1022 30.584 98.3595 30.584C99.6168 30.584 100.537 29.986 101.12 28.79C101.733 27.5633 102.039 25.57 102.039 22.81C102.039 19.9887 101.748 17.9953 101.165 16.83C100.583 15.634 99.6475 15.036 98.3595 15.036ZM121.828 5.33C120.908 5.33 120.248 5.56 119.85 6.02C119.451 6.44933 119.252 7.17 119.252 8.182V10.574H124.266L123.484 15.496H119.252V35H112.168V15.496H108.948V10.574H112.168V8.228C112.168 5.80533 112.904 3.858 114.376 2.386C115.878 0.883332 118.025 0.131999 120.816 0.131999C123.085 0.131999 125.155 0.622666 127.026 1.604L125.14 6.158C124.036 5.606 122.932 5.33 121.828 5.33ZM135.126 5.33C134.206 5.33 133.547 5.56 133.148 6.02C132.75 6.44933 132.55 7.17 132.55 8.182V10.574H137.564L136.782 15.496H132.55V35H125.466V15.496H122.246V10.574H125.466V8.228C125.466 5.80533 126.202 3.858 127.674 2.386C129.177 0.883332 131.324 0.131999 134.114 0.131999C136.384 0.131999 138.454 0.622666 140.324 1.604L138.438 6.158C137.334 5.606 136.23 5.33 135.126 5.33Z" fill="#232E35"/>
</svg>
